<svg width="90" height="66" viewBox="0 0 90 66" fill="none" xmlns="http://www.w3.org/2000/svg">
<path d="M0.290436 57.7105L22.8638 15.9418L27.5781 24.5474L10.752 57.7106L0.290436 57.7105Z" fill="white"/>
<path d="M52.7904 42.0064L23.7904 42.0064L27.4108 34.0064L48.6361 34.0064L52.7904 42.0064Z" fill="white"/>
<path d="M89.7904 1.00641L61.1382 23.8559L61.2904 35.0064L81.5108 16.0115L89.7904 1.00641Z" fill="#00EEFF"/>
<path d="M32.7904 0.658356L61.5314 23.9201L61.4264 35.0149L41.0252 15.847L32.7904 0.658356Z" fill="#00EEFF"/>
<path d="M30.7649 1.00641L62.1194 57.8449L50.7904 57.8449L26.0203 10.5227L30.7649 1.00641Z" fill="white"/>
<path d="M80.7904 15.5064L89.7904 1.00641V58.0064H80.7904V15.5064Z" fill="#00EEFF"/>
<path d="M0 62H44.5L40.9091 66H0V62Z" fill="#00EEFF"/>
<path d="M47.8333 62H90V66H44.5L47.8333 62Z" fill="white"/>
<path d="M0.290436 57.7105L22.8638 15.9418L27.5781 24.5474L10.752 57.7106L0.290436 57.7105Z" fill="white"/>
<path d="M52.7904 42.0064L23.7904 42.0064L27.4108 34.0064L48.6361 34.0064L52.7904 42.0064Z" fill="white"/>
<path d="M89.7904 1.00641L61.1382 23.8559L61.2904 35.0064L81.5108 16.0115L89.7904 1.00641Z" fill="#00EEFF"/>
<path d="M32.7904 0.658356L61.5314 23.9201L61.4264 35.0149L41.0252 15.847L32.7904 0.658356Z" fill="#00EEFF"/>
<path d="M30.7649 1.00641L62.1194 57.8449L50.7904 57.8449L26.0203 10.5227L30.7649 1.00641Z" fill="white"/>
</svg>
