<svg width="92" height="63" viewBox="0 0 92 63" fill="none" xmlns="http://www.w3.org/2000/svg">
<path d="M1.29044 57.7105L23.8638 15.9418L28.5781 24.5474L11.752 57.7106L1.29044 57.7105Z" fill="#323946"/>
<path d="M53.7904 42.0064L24.7904 42.0064L28.4108 34.0064L49.6361 34.0064L53.7904 42.0064Z" fill="#323946"/>
<path d="M90.7904 1.00641L62.1382 23.8559L62.2904 35.0064L82.5108 16.0115L90.7904 1.00641Z" fill="#00EEFF"/>
<path d="M33.7904 0.658356L62.5314 23.9201L62.4264 35.0149L42.0252 15.847L33.7904 0.658356Z" fill="#00EEFF"/>
<path d="M31.7649 1.00641L63.1194 57.8449L51.7904 57.8449L27.0203 10.5227L31.7649 1.00641Z" fill="#323946"/>
<path d="M81.7904 15.5064L90.7904 1.00641V58.0064H81.7904V15.5064Z" fill="#00EEFF"/>
<path d="M1 62L44 62" stroke="#00EEFF" stroke-linecap="round"/>
<path d="M48 62L91 62" stroke="#323946" stroke-linecap="round"/>
</svg>
